<svg width="1920" height="1080" viewBox="0 0 1920 1080" fill="none" xmlns="http://www.w3.org/2000/svg">
<path d="M0 20C0 8.95429 8.95431 0 20 0H1900C1911.05 0 1920 8.95431 1920 20V1060C1920 1071.05 1911.05 1080 1900 1080H20C8.95434 1080 0 1071.05 0 1060V20Z" fill="#F8F8FA"/>
<g opacity="0.7">
<mask id="mask0" mask-type="alpha" maskUnits="userSpaceOnUse" x="981" y="0" width="939" height="374">
<rect x="981" width="939" height="374" fill="#15195F"/>
</mask>
<g mask="url(#mask0)">
<g opacity="0.8">
<path d="M2046.16 -1081.71C2087.64 -1051.03 2105.98 -1002.4 2120.62 -950.045C2123.52 -939.686 2126.27 -929.178 2129.03 -918.64C2140.2 -876.032 2151.49 -832.921 2173.01 -797.039C2194.5 -761.175 2227.16 -730.949 2259.44 -701.07C2267.43 -693.68 2275.39 -686.311 2283.15 -678.883C2322.39 -641.345 2356.63 -602.283 2364.21 -551.17C2371.77 -500.028 2350.34 -452.518 2323.68 -404.983C2318.4 -395.559 2312.91 -386.133 2307.4 -376.68C2285.18 -338.549 2262.7 -299.972 2252.51 -259.306L2253.48 -259.063L2252.51 -259.306C2242.34 -218.663 2244 -174.121 2245.65 -130.089C2246.05 -119.172 2246.46 -108.287 2246.68 -97.4996C2247.82 -43.0902 2244.34 8.86248 2213.55 50.4954C2182.76 92.1283 2134.1 110.665 2081.74 125.513C2071.36 128.457 2060.83 131.255 2050.28 134.062C2007.69 145.382 1964.62 156.833 1928.73 178.461L1929.25 179.318L1928.73 178.461C1892.83 200.112 1862.53 232.9 1832.57 265.31C1825.15 273.345 1817.74 281.356 1810.28 289.169C1772.63 328.578 1733.48 362.976 1682.36 370.721C1631.27 378.437 1583.9 357.139 1536.52 330.613C1527.14 325.364 1517.76 319.909 1508.36 314.438C1470.34 292.32 1431.87 269.944 1391.29 259.894C1350.68 249.828 1306.15 251.649 1262.14 253.45C1251.26 253.895 1240.4 254.339 1229.65 254.601C1175.3 255.928 1123.43 252.635 1081.95 221.955C1040.47 191.276 1022.12 142.633 1007.46 90.2659C1004.56 79.8991 1001.8 69.3841 999.033 58.8386C987.859 16.228 976.553 -26.8837 955.04 -62.7606C933.548 -98.6247 900.89 -128.851 868.609 -158.73C860.624 -166.12 852.662 -173.489 844.898 -180.917C805.661 -218.455 771.425 -257.517 763.843 -308.63C756.282 -359.772 777.708 -407.282 804.367 -454.817C809.652 -464.241 815.145 -473.666 820.653 -483.12C842.871 -521.251 865.349 -559.828 875.539 -600.494C885.742 -641.145 884.075 -685.712 882.426 -729.772C882.019 -740.663 881.613 -751.523 881.387 -762.285C880.247 -816.7 883.71 -868.662 914.503 -910.295C945.295 -951.928 993.966 -970.455 1046.33 -985.297C1056.69 -988.233 1067.19 -991.024 1077.72 -993.823C1120.33 -1005.15 1163.44 -1016.6 1199.32 -1038.26C1235.22 -1059.91 1265.52 -1092.7 1295.48 -1125.11C1302.9 -1133.14 1310.31 -1141.16 1317.77 -1148.97C1355.42 -1188.38 1394.57 -1222.78 1445.69 -1230.52C1496.78 -1238.24 1544.15 -1216.94 1591.53 -1190.41C1600.91 -1185.16 1610.29 -1179.71 1619.69 -1174.24C1657.71 -1152.12 1696.18 -1129.74 1736.76 -1119.69C1777.37 -1109.63 1821.9 -1111.44 1865.91 -1113.23C1876.81 -1113.68 1887.67 -1114.12 1898.43 -1114.38C1952.79 -1115.7 2004.68 -1112.39 2046.16 -1081.71Z" stroke="#15195F" stroke-width="2"/>
<path d="M2054.99 -890.361C2042.01 -936.769 2025.93 -979.097 1989.94 -1005.72C1953.92 -1032.36 1908.72 -1035.35 1860.55 -1034.17C1851.11 -1033.94 1841.56 -1033.55 1831.94 -1033.16C1792.9 -1031.56 1752.95 -1029.92 1716.59 -1038.94C1680.18 -1047.96 1645.65 -1068.06 1611.92 -1087.69C1603.61 -1092.52 1595.36 -1097.32 1587.13 -1101.93C1545.14 -1125.43 1503.84 -1143.87 1459.49 -1137.16C1415.12 -1130.41 1380.94 -1100.51 1347.59 -1065.59C1341.06 -1058.75 1334.56 -1051.71 1328.02 -1044.64C1301.43 -1015.87 1274.24 -986.434 1242.06 -967.043C1209.86 -947.632 1171.18 -937.348 1133.38 -927.298C1124.08 -924.824 1114.83 -922.365 1105.74 -919.786C1059.35 -906.626 1017.01 -890.378 990.284 -854.244C963.559 -818.11 960.419 -772.872 961.419 -724.659C961.615 -715.215 961.972 -705.649 962.331 -696.028C963.79 -656.942 965.282 -616.944 956.149 -580.477C947.031 -544.027 926.851 -509.407 907.125 -475.566C902.273 -467.242 897.448 -458.965 892.822 -450.72C869.193 -408.601 850.616 -367.168 857.156 -322.763C863.717 -278.393 893.443 -244.299 928.215 -211.032C935.026 -204.516 942.036 -198.029 949.088 -191.504C977.738 -164.992 1007.06 -137.86 1026.34 -105.693C1045.62 -73.5667 1055.75 -34.89 1065.65 2.91499C1068.09 12.2204 1070.51 21.473 1073.06 30.5622C1086.04 76.9687 1102.13 119.309 1138.15 145.951C1174.14 172.572 1219.32 175.547 1267.5 174.374C1276.91 174.144 1286.44 173.754 1296.03 173.362C1335.1 171.764 1375.09 170.129 1411.5 179.177C1447.89 188.18 1482.4 208.264 1516.14 227.891C1524.44 232.72 1532.69 237.521 1540.91 242.122C1582.89 265.625 1624.19 284.066 1668.54 277.347C1712.91 270.598 1747.09 240.704 1780.45 205.778C1786.98 198.941 1793.48 191.904 1800.02 184.827C1826.6 156.057 1853.79 126.625 1885.97 107.234C1885.97 107.233 1885.97 107.233 1885.97 107.233L1887.78 110.231C1919.5 91.1039 1957.56 80.9811 1995.31 70.9378C2051.8 55.913 2107.61 41.0662 2140.56 -3.48394C2173.51 -48.0341 2171.37 -105.749 2169.19 -164.156C2167.74 -203.198 2166.28 -242.549 2175.28 -278.483L2054.99 -890.361ZM2054.99 -890.361C2057.53 -881.296 2059.94 -872.069 2062.38 -862.788M2054.99 -890.361L2062.38 -862.788M2062.38 -862.788C2072.29 -824.955 2082.43 -786.238 2101.75 -754.072L2062.38 -862.788Z" stroke="#15195F" stroke-width="7"/>
<path d="M2037.84 -715.541L2037.85 -715.54C2054.61 -687.614 2080.05 -664.079 2105.16 -640.844C2111.4 -635.08 2117.61 -629.334 2123.66 -623.545C2154.2 -594.337 2180.78 -563.983 2186.65 -524.265C2192.53 -484.547 2175.88 -447.627 2155.12 -410.627C2151.02 -403.315 2146.75 -395.999 2142.47 -388.659C2125.17 -358.958 2107.63 -328.875 2099.7 -297.165C2091.79 -265.505 2093.09 -230.803 2094.37 -196.535C2094.69 -188.029 2095.01 -179.55 2095.18 -171.15C2096.07 -128.798 2093.36 -88.4274 2069.44 -56.0928C2045.53 -23.7583 2007.72 -9.34455 1966.97 2.20978C1958.88 4.50135 1950.68 6.68038 1942.45 8.86625C1909.31 17.6723 1875.75 26.5899 1847.8 43.4233C1819.8 60.2946 1796.17 85.8665 1772.84 111.114C1767.07 117.353 1761.32 123.572 1755.53 129.635C1726.23 160.317 1695.81 187.049 1656.11 193.063C1616.41 199.078 1579.61 182.547 1542.74 161.898C1535.43 157.805 1528.11 153.549 1520.78 149.279C1491.21 132.066 1461.26 114.632 1429.65 106.781L1429.4 107.752L1429.64 106.781C1398 98.9495 1363.3 100.374 1329.05 101.779C1320.57 102.127 1312.12 102.474 1303.75 102.679C1261.45 103.716 1221.15 101.15 1188.93 77.3228C1156.69 53.4748 1142.42 15.6792 1131.02 -25.0799C1128.76 -33.153 1126.61 -41.3443 1124.46 -49.5618C1115.77 -82.7195 1106.98 -116.302 1090.23 -144.257C1073.49 -172.169 1048.05 -195.703 1022.92 -218.942C1016.7 -224.704 1010.49 -230.448 1004.43 -236.237C973.887 -265.45 947.289 -295.815 941.417 -335.532C935.545 -375.25 952.196 -412.17 972.954 -449.17C977.056 -456.482 981.32 -463.799 985.598 -471.139C1002.91 -500.839 1020.44 -530.922 1028.37 -562.632C1036.31 -594.293 1035.02 -629.007 1033.74 -663.288C1033.42 -671.773 1033.11 -680.231 1032.94 -688.61C1032.06 -730.957 1034.77 -771.328 1058.68 -803.663C1082.6 -835.997 1120.41 -850.411 1161.16 -861.971C1169.22 -864.258 1177.4 -866.433 1185.6 -868.616C1218.76 -877.433 1252.33 -886.361 1280.28 -903.221C1308.27 -920.092 1331.9 -945.664 1355.24 -970.911C1361 -977.15 1366.75 -983.369 1372.54 -989.432C1401.84 -1020.11 1432.27 -1046.85 1471.96 -1052.86C1511.66 -1058.88 1548.48 -1042.33 1585.36 -1021.68C1592.66 -1017.59 1599.97 -1013.33 1607.31 -1009.06C1636.88 -991.847 1666.84 -974.413 1698.43 -966.579L1698.43 -966.578C1730.06 -958.749 1764.75 -960.17 1798.99 -961.573C1807.48 -961.92 1815.94 -962.267 1824.32 -962.471C1866.64 -963.503 1906.95 -960.926 1939.2 -937.078C1971.41 -913.251 1985.67 -875.466 1997.06 -834.712C1999.32 -826.65 2001.46 -818.47 2003.61 -810.263C2012.29 -777.099 2021.09 -743.503 2037.84 -715.541Z" stroke="#15195F" stroke-width="2"/>
<path d="M1967.43 -673.063L1967.43 -673.063C1981.7 -649.259 2003.39 -629.192 2024.79 -609.394C2030.09 -604.499 2035.36 -599.62 2040.5 -594.705C2066.51 -569.832 2089.13 -544.012 2094.12 -510.253C2099.09 -476.464 2084.95 -445.059 2067.28 -413.555C2063.79 -407.321 2060.15 -401.081 2056.5 -394.82C2041.78 -369.545 2026.85 -343.928 2020.09 -316.927C2013.31 -289.912 2014.41 -260.299 2015.5 -231.087C2015.77 -223.871 2016.04 -216.679 2016.19 -209.557C2016.93 -173.49 2014.62 -139.158 1994.3 -111.671C1973.97 -84.184 1941.81 -71.9238 1907.11 -62.0789C1900.26 -60.1349 1893.3 -58.2851 1886.32 -56.4289C1858.07 -48.9152 1829.43 -41.2984 1805.59 -26.9118C1781.75 -12.5335 1761.63 9.23746 1741.77 30.7169C1736.85 36.0376 1731.95 41.3405 1727.01 46.5087C1702.06 72.6233 1676.17 95.345 1642.41 100.486C1608.67 105.598 1577.36 91.532 1545.96 73.9431C1539.76 70.4675 1533.55 66.8527 1527.32 63.2259C1502.12 48.5574 1476.58 33.6901 1449.64 27.0203L1449.64 27.0202C1422.68 20.3599 1393.1 21.5724 1363.93 22.7686C1356.7 23.0651 1349.49 23.3605 1342.36 23.5348C1306.32 24.4151 1272.04 22.221 1244.65 1.96644C1217.24 -18.3091 1205.09 -50.4599 1195.38 -85.1761C1193.45 -92.0748 1191.61 -99.0769 1189.77 -106.102C1182.39 -134.318 1174.9 -162.911 1160.67 -186.704L1160.67 -186.705C1146.39 -210.524 1124.68 -230.598 1103.27 -250.401C1097.98 -255.3 1092.7 -260.182 1087.55 -265.1C1061.54 -289.977 1038.92 -315.797 1033.93 -349.556C1028.96 -383.346 1043.1 -414.751 1060.77 -446.254C1064.26 -452.489 1067.9 -458.729 1071.55 -464.99C1086.27 -490.265 1101.19 -515.882 1107.96 -542.882C1114.74 -569.898 1113.63 -599.51 1112.55 -628.722C1112.28 -635.939 1112.01 -643.13 1111.86 -650.253C1111.11 -686.32 1113.42 -720.652 1133.75 -748.139C1154.08 -775.626 1186.23 -787.886 1220.94 -797.731C1227.79 -799.675 1234.75 -801.525 1241.73 -803.381C1269.98 -810.894 1298.61 -818.511 1322.46 -832.898C1346.3 -847.276 1366.42 -869.047 1386.28 -890.526C1391.2 -895.847 1396.1 -901.15 1401.04 -906.318C1425.99 -932.433 1451.87 -955.154 1485.64 -960.295C1519.38 -965.408 1550.69 -951.342 1582.09 -933.748C1588.3 -930.27 1594.52 -926.652 1600.75 -923.022C1625.96 -908.349 1651.51 -893.474 1678.46 -886.788L1678.46 -886.788C1705.38 -880.15 1734.91 -881.365 1764.05 -882.563C1771.31 -882.862 1778.54 -883.159 1785.7 -883.334C1821.74 -884.214 1856.04 -882.01 1883.45 -861.734C1910.84 -841.48 1922.98 -809.34 1932.69 -774.623C1934.61 -767.749 1936.44 -760.773 1938.27 -753.772C1945.67 -725.528 1953.17 -696.895 1967.43 -673.063Z" stroke="#15195F" stroke-width="2"/>
<path d="M1798.31 -39.1378L1798.82 -38.2812L1798.31 -39.1376C1775.17 -25.1866 1755.65 -4.05294 1736.4 16.7919C1731.63 21.9522 1726.88 27.0949 1722.1 32.1064C1697.9 57.4452 1672.81 79.4801 1640.05 84.4436C1607.34 89.3993 1576.99 75.7794 1546.54 58.7266C1540.5 55.345 1534.46 51.827 1528.39 48.2966C1503.97 34.0828 1479.21 19.6705 1453.09 13.1693L1453.09 13.169C1426.96 6.70323 1398.27 7.87833 1369.98 9.03742C1362.97 9.32438 1355.99 9.61038 1349.08 9.7792C1314.13 10.6327 1280.89 8.50732 1254.35 -11.1204C1227.78 -30.7691 1216.02 -61.9333 1206.6 -95.5995C1204.74 -102.248 1202.97 -108.996 1201.2 -115.768C1194.02 -143.172 1186.74 -170.959 1172.88 -194.08L1172.88 -194.08C1159.03 -217.141 1138 -236.595 1117.26 -255.786C1112.11 -260.55 1106.98 -265.297 1101.98 -270.079C1076.75 -294.208 1054.82 -319.252 1049.98 -351.977C1045.17 -384.732 1058.89 -415.179 1076.03 -445.735C1079.41 -451.771 1082.93 -457.813 1086.47 -463.875C1100.76 -488.401 1115.25 -513.268 1121.81 -539.481L1120.84 -539.724L1121.81 -539.482C1128.36 -565.653 1127.29 -594.335 1126.23 -622.627C1125.97 -629.647 1125.71 -636.642 1125.57 -643.57C1124.84 -678.533 1127.1 -711.811 1146.82 -738.476C1166.54 -765.142 1197.7 -777.038 1231.35 -786.59C1238 -788.479 1244.75 -790.275 1251.53 -792.078C1278.91 -799.366 1306.67 -806.756 1329.81 -820.708C1352.94 -834.642 1372.46 -855.766 1391.73 -876.605C1396.49 -881.754 1401.23 -886.886 1406.01 -891.887C1430.2 -917.213 1455.29 -939.248 1488.02 -944.233C1520.73 -949.189 1551.1 -935.558 1581.56 -918.507C1587.58 -915.14 1593.6 -911.637 1599.64 -908.123C1624.09 -893.901 1648.88 -879.483 1675.03 -873.015C1701.2 -866.503 1729.91 -867.67 1758.23 -868.822C1765.2 -869.105 1772.15 -869.388 1779.03 -869.555C1813.97 -870.401 1847.22 -868.276 1873.78 -848.627C1900.32 -828.999 1912.09 -797.835 1921.51 -764.176C1923.37 -757.537 1925.13 -750.8 1926.91 -744.039C1934.09 -716.636 1941.38 -688.855 1955.24 -665.766C1969.1 -642.648 1990.15 -623.166 2010.9 -603.954C2016.03 -599.204 2021.14 -594.47 2026.13 -589.702C2051.34 -565.571 2073.25 -540.537 2078.09 -507.812C2082.94 -475.036 2069.22 -444.589 2052.08 -414.046C2048.69 -408.008 2045.16 -401.964 2041.63 -395.9C2027.34 -371.392 2012.85 -346.55 2006.31 -320.364C1999.74 -294.149 2000.81 -265.423 2001.87 -237.092C2002.14 -230.091 2002.4 -223.114 2002.54 -216.205C2003.27 -181.224 2001.04 -147.936 1981.32 -121.271C1961.59 -94.6062 1930.42 -82.7204 1896.76 -73.1854C1890.1 -71.2981 1883.34 -69.5028 1876.55 -67.7015C1849.18 -60.4323 1821.42 -53.0633 1798.31 -39.1378Z" stroke="#15195F" stroke-width="2"/>
<path d="M1838.47 -800.882C1861.84 -783.599 1872.22 -756.148 1880.58 -726.296C1882.22 -720.45 1883.77 -714.508 1885.34 -708.54C1891.72 -684.204 1898.22 -659.422 1910.61 -638.822C1922.93 -618.247 1941.67 -600.9 1960.07 -583.858C1964.62 -579.647 1969.15 -575.455 1973.56 -571.238C1995.92 -549.832 2015.22 -527.732 2019.48 -498.881C2023.74 -470.079 2011.67 -443.236 1996.46 -416.136C1993.47 -410.81 1990.36 -405.472 1987.23 -400.11C1974.55 -378.341 1961.63 -356.179 1955.79 -332.84C1949.96 -309.523 1950.92 -283.956 1951.87 -258.838C1952.1 -252.62 1952.33 -246.431 1952.46 -240.309C1953.11 -209.286 1951.11 -179.94 1933.74 -156.456C1916.37 -132.972 1888.9 -122.464 1859.04 -114.003C1853.15 -112.334 1847.17 -110.744 1841.15 -109.147C1816.86 -102.696 1792.13 -96.1292 1771.54 -83.7272C1750.94 -71.313 1733.53 -52.4722 1716.43 -33.965C1712.22 -29.4067 1708.02 -24.8687 1703.81 -20.4519C1682.35 2.02298 1660.22 21.4288 1631.43 25.7905C1602.59 30.1595 1575.81 18.1782 1548.8 3.06239C1543.47 0.0841682 1538.14 -3.01803 1532.78 -6.13409C1511.1 -18.7448 1489.02 -31.5817 1465.74 -37.3409C1442.42 -43.1484 1416.82 -42.1073 1391.68 -41.0849C1385.52 -40.8342 1379.38 -40.5846 1373.31 -40.4374C1342.32 -39.6859 1313.03 -41.5802 1289.66 -58.8629C1266.27 -76.1667 1255.87 -103.629 1247.51 -133.48C1245.87 -139.351 1244.3 -145.317 1242.73 -151.31C1236.36 -175.618 1229.88 -200.36 1217.53 -220.922C1205.18 -241.511 1186.44 -258.867 1168.02 -275.914C1163.47 -280.128 1158.94 -284.323 1154.53 -288.543C1132.16 -309.955 1112.86 -332.054 1108.59 -360.905C1104.34 -389.707 1116.41 -416.55 1131.62 -443.651C1134.61 -448.977 1137.72 -454.315 1140.84 -459.676C1153.53 -481.446 1166.45 -503.607 1172.29 -526.947C1178.12 -550.263 1177.15 -575.83 1176.21 -600.949C1175.98 -607.166 1175.74 -613.356 1175.61 -619.477C1174.96 -650.501 1176.97 -679.846 1194.34 -703.33C1211.7 -726.815 1239.18 -737.322 1269.03 -745.783C1274.92 -747.452 1280.91 -749.042 1286.92 -750.639C1311.22 -757.09 1335.94 -763.657 1356.53 -776.059C1377.14 -788.474 1394.55 -807.314 1411.65 -825.822C1415.86 -830.38 1420.05 -834.918 1424.27 -839.335C1445.73 -861.809 1467.86 -881.215 1496.65 -885.577C1525.48 -889.946 1552.26 -877.965 1579.29 -862.844C1584.61 -859.863 1589.95 -856.758 1595.32 -853.639C1617.01 -841.024 1639.09 -828.179 1662.39 -822.404C1685.67 -816.619 1711.22 -817.662 1736.33 -818.687C1742.52 -818.939 1748.69 -819.191 1754.78 -819.339C1785.77 -820.09 1815.07 -818.185 1838.47 -800.882Z" stroke="#15195F" stroke-width="3"/>
<path d="M1289.89 -264.579L1289.46 -264.322L1289.89 -264.579C1280.19 -280.749 1265.47 -294.372 1250.93 -307.829C1247.33 -311.161 1243.75 -314.483 1240.25 -317.831C1222.57 -334.739 1207.17 -352.321 1203.77 -375.331C1200.37 -398.342 1210.01 -419.719 1222.01 -441.118C1224.39 -445.353 1226.86 -449.589 1229.33 -453.837C1239.34 -471.008 1249.47 -488.385 1254.05 -506.7C1258.65 -525.009 1257.9 -545.091 1257.16 -564.938C1256.98 -569.835 1256.8 -574.718 1256.7 -579.557C1256.19 -604.061 1257.75 -627.449 1271.61 -646.182C1285.46 -664.915 1307.37 -673.256 1330.95 -679.943C1335.6 -681.264 1340.32 -682.52 1345.06 -683.779C1364.25 -688.884 1383.67 -694.049 1399.83 -703.813C1416 -713.555 1429.65 -728.326 1443.14 -742.921C1446.48 -746.533 1449.81 -750.133 1453.16 -753.644C1470.11 -771.388 1487.73 -786.867 1510.72 -790.352C1533.72 -793.836 1555.04 -784.257 1576.38 -772.309C1580.61 -769.944 1584.84 -767.485 1589.08 -765.018C1606.2 -755.055 1623.54 -744.969 1641.84 -740.431L1641.84 -740.431C1660.11 -735.912 1680.14 -736.726 1699.94 -737.53C1704.86 -737.73 1709.77 -737.929 1714.63 -738.046C1739.1 -738.634 1762.45 -737.136 1781.11 -723.332C1799.78 -709.528 1808.03 -687.653 1814.63 -664.084C1815.93 -659.425 1817.17 -654.699 1818.41 -649.958C1823.45 -630.772 1828.54 -611.346 1838.24 -595.169C1847.92 -579.013 1862.63 -565.398 1877.16 -551.946C1880.76 -548.617 1884.34 -545.299 1887.84 -541.954C1905.5 -525.051 1920.91 -507.469 1924.31 -484.459C1927.71 -461.448 1918.07 -440.07 1906.06 -418.672C1903.69 -414.437 1901.22 -410.201 1898.74 -405.953C1888.74 -388.782 1878.61 -371.404 1874.03 -353.089C1869.46 -334.788 1870.2 -314.733 1870.93 -294.914C1871.12 -289.99 1871.3 -285.081 1871.4 -280.217C1871.9 -255.719 1870.33 -232.341 1856.47 -213.608C1842.62 -194.875 1820.72 -186.523 1797.15 -179.831C1792.47 -178.502 1787.72 -177.239 1782.96 -175.972C1763.8 -170.872 1744.4 -165.711 1728.25 -155.977C1712.07 -146.235 1698.42 -131.464 1684.93 -116.868C1681.6 -113.257 1678.27 -109.656 1674.92 -106.145C1657.97 -88.402 1640.35 -72.9225 1617.35 -69.4378C1594.36 -65.9532 1573.03 -75.5323 1551.7 -87.4752C1547.48 -89.8384 1543.26 -92.295 1539.02 -94.7589C1521.9 -104.717 1504.58 -114.795 1486.29 -119.317C1467.99 -123.857 1447.92 -123.04 1428.1 -122.233C1423.21 -122.034 1418.32 -121.835 1413.49 -121.718C1389.02 -121.125 1365.69 -122.612 1347.02 -136.416C1328.36 -150.22 1320.09 -172.105 1313.49 -195.68C1312.17 -200.36 1310.93 -205.108 1309.68 -209.869C1304.65 -229.038 1299.56 -248.436 1289.89 -264.579Z" stroke="#15195F"/>
</g>
</g>
</g>
<g opacity="0.7">
<mask id="mask1" mask-type="alpha" maskUnits="userSpaceOnUse" x="0" y="590" width="820" height="490">
<rect y="590" width="820" height="490" fill="#15195F"/>
</mask>
<g mask="url(#mask1)">
<path d="M-0.275922 610C-0.275922 610 31.6091 595.735 49.5363 593.019C152.449 577.476 240.098 678.878 341.003 703.864C441.964 728.891 567.199 680.213 650.753 742.011C734.307 803.809 724.376 937.766 777.868 1026.97C789.252 1045.97 804.544 1064.37 820.5 1081" stroke="#15195F" stroke-width="2"/>
<path d="M-1.99998 712C17.1316 698.394 39.3612 687.501 62.9658 683.912C154.208 670.087 231.907 760.007 321.428 782.187C410.851 804.382 521.901 761.176 596.02 815.996C670.084 870.774 661.287 989.608 708.748 1068.65C711.029 1072.46 715.952 1079.33 718.5 1083" stroke="#15195F" stroke-width="7"/>
<path d="M629 1081C602.09 1014 600.413 928.524 543.791 886.646C478.71 838.512 381.269 876.433 302.667 856.979C224.163 837.51 155.933 758.539 75.8126 770.679C46.666 775.095 20.7854 792.074 -1.49991 812" stroke="#15195F" stroke-width="2"/>
<path d="M546 1080.5C533.95 1035.11 523.71 988.365 488.049 961.99C432.629 921 349.598 953.265 282.704 936.769C215.795 920.175 157.698 852.909 89.4876 863.244C53.2073 868.768 24.4091 894.867 -1.99993 923" stroke="#15195F" stroke-width="2"/>
<path d="M-2.00001 943C25.163 913.728 54.4605 885.004 91.8744 879.307C158.018 869.285 214.402 934.495 279.268 950.543C344.147 966.689 424.651 935.361 478.376 975.097C510.454 998.823 521.286 1040.16 532 1081" stroke="#15195F" stroke-width="2"/>
<path d="M-1.49998 1014C29.398 981.931 58.6793 943.793 100.423 937.468C159.184 928.565 209.144 986.391 266.754 1000.67C324.265 1014.96 395.681 987.175 443.362 1022.44C462.353 1036.49 473.279 1058.08 481 1081" stroke="#15195F" stroke-width="3"/>
<path d="M47 1080.5C66.7495 1059.14 87.4367 1037.81 114.649 1033.68C157.027 1027.26 194.774 1065.38 235.5 1080.5" stroke="#15195F"/>
</g>
</g>
</svg>
